<?xml version="1.0" encoding="UTF-8"?>
<svg id="Logos_and_Lockups" data-name="Logos and Lockups" xmlns="http://www.w3.org/2000/svg" version="1.1" viewBox="0 0 152.75529 23.071">
  <defs>
    <style>
      .cls-1 {
        fill: #fff;
        stroke-width: 0px;
      }
    </style>
  </defs>
  <g>
    <path class="cls-1" d="M99.08536.12079h3.41699l6.93604,18.4873h-3.54443l-1.45312-4.10547h-7.49707l-1.42822,4.10547h-3.31494L99.08538.12079h-.00002ZM97.88712,11.7995h5.58447l-2.80518-7.93066s-2.7793,7.93066-2.77929,7.93066Z"/>
    <path class="cls-1" d="M114.18155,4.88934v1.83594c.40771-.67969.95996-1.20703,1.65723-1.58105.69678-.37402,1.50439-.56152,2.42285-.56152.83252,0,1.61035.16602,2.33301.49805.72217.33105,1.34717.81152,1.87402,1.44043s.93945,1.38574,1.23682,2.26953c.29736.88379.44629,1.87012.44629,2.95801,0,1.10547-.14893,2.09961-.44629,2.9834s-.70996,1.64062-1.23682,2.26953-1.15186,1.10938-1.87402,1.44043c-.72266.33203-1.50049.49707-2.33301.49707-.91846,0-1.72607-.18652-2.42285-.56055-.69727-.37402-1.24951-.90039-1.65723-1.58105v6.27344h-3.03467V4.88934h3.03467ZM114.05411,11.74872c0,.79883.08887,1.49121.26758,2.07812.17822.58691.4292,1.0752.75244,1.46582.32227.3916.70117.68457,1.13428.87988.43359.19629.89648.29395,1.39014.29395,1.0708,0,1.90381-.4209,2.49902-1.2627.59473-.8418.89209-1.99316.89209-3.45508,0-1.44531-.29736-2.58789-.89209-3.42969-.59521-.8418-1.42822-1.2627-2.49902-1.2627-.49365,0-.95654.09863-1.39014.29395-.43311.19531-.81201.48438-1.13428.86621-.32324.38281-.57422.87207-.75244,1.4668-.17871.59473-.26758,1.2832-.26758,2.06544Z"/>
    <path class="cls-1" d="M129.49942,4.88934v1.83594c.40771-.67969.95996-1.20703,1.65723-1.58105.69678-.37402,1.50439-.56152,2.42285-.56152.83252,0,1.61035.16602,2.33301.49805.72217.33105,1.34717.81152,1.87402,1.44043s.93945,1.38574,1.23682,2.26953c.29736.88379.44629,1.87012.44629,2.95801,0,1.10547-.14893,2.09961-.44629,2.9834s-.70996,1.64062-1.23682,2.26953-1.15186,1.10938-1.87402,1.44043c-.72266.33203-1.50049.49707-2.33301.49707-.91846,0-1.72607-.18652-2.42285-.56055-.69727-.37402-1.24951-.90039-1.65723-1.58105v6.27344h-3.03467V4.88934h3.03467ZM129.37198,11.74872c0,.79883.08887,1.49121.26758,2.07812.17822.58691.4292,1.0752.75244,1.46582.32227.3916.70117.68457,1.13428.87988.43359.19629.89648.29395,1.39014.29395,1.0708,0,1.90381-.4209,2.49902-1.2627.59473-.8418.89209-1.99316.89209-3.45508,0-1.44531-.29736-2.58789-.89209-3.42969-.59521-.8418-1.42822-1.2627-2.49902-1.2627-.49365,0-.95654.09863-1.39014.29395-.43311.19531-.81201.48438-1.13428.86621-.32324.38281-.57422.87207-.75244,1.4668-.17871.59473-.26758,1.2832-.26758,2.06544Z"/>
    <path class="cls-1" d="M149.74602,8.73993c-.15283-.64648-.50977-1.11328-1.0708-1.40332-.56104-.28809-1.2749-.43262-2.14209-.43262-.69727,0-1.29639.13184-1.79785.39453-.50146.26367-.75244.625-.75244,1.08398,0,.85059.66309,1.41113,1.98926,1.68262l1.86133.38281c.67969.15332,1.32178.32812,1.92529.52246.60352.19629,1.12598.44629,1.56836.75293.44189.30566.79053.68457,1.04541,1.13477s.38281,1.00684.38281,1.66992c0,.71387-.15771,1.34766-.47217,1.89941-.31445.55273-.73926,1.01172-1.2749,1.37695-.53516.36621-1.15625.64648-1.86133.8418-.70557.19531-1.45801.29297-2.25684.29297-.88428,0-1.6875-.11914-2.40967-.35645-.72266-.23828-1.34326-.56152-1.86133-.96875-.51904-.4082-.93555-.89258-1.24951-1.4541-.31494-.56055-.50635-1.17285-.57422-1.83594h2.95801c.13623.73145.46777,1.30078.99463,1.70898.52686.40723,1.2749.61133,2.24414.61133.84961,0,1.52979-.15625,2.04004-.47168.50977-.31445.76514-.74316.76514-1.28711s-.22559-.96094-.67578-1.25c-.45068-.28906-1.0415-.50977-1.77246-.66309l-2.06543-.43359c-.59521-.11816-1.14746-.27539-1.65771-.47168-.50977-.19531-.94775-.4502-1.31299-.76465-.36572-.31445-.65479-.69727-.86719-1.14746-.21289-.4502-.31885-.99023-.31885-1.61914,0-.6123.14893-1.16016.44629-1.64453.29736-.48535.70117-.89648,1.21143-1.2373.50977-.33984,1.10498-.60352,1.78516-.79004.67969-.1875,1.40234-.28125,2.16748-.28125.71387,0,1.39355.08594,2.04004.25586.64551.16992,1.22803.42871,1.74658.77734s.96045.78223,1.32617,1.30078c.36523.51855.61572,1.12598.75195,1.82324h-2.85596v.00002Z"/>
  </g>
  <path id="logo_ZM_wordmark" data-name="logo ZM wordmark" class="cls-1" d="M17.55926,18.76068H2.58896c-1.05034,0-1.98877-.62706-2.39071-1.59744s-.18172-2.0774.561-2.81999L11.1286,3.97394H3.69668C1.65505,3.97394,0,2.31888,0,.27726h13.8059c1.05025,0,1.98864.62688,2.39062,1.59726.40202.97038.18195,2.07722-.56068,2.82017L5.26644,15.064h8.59614c2.04163,0,3.69668,1.65506,3.69668,3.69668ZM83.72992,7.20854c0-3.97484-3.23374-7.20854-7.20854-7.20854-2.12614,0-4.03964.9258-5.36019,2.39481-1.32055-1.46902-3.23406-2.39481-5.36019-2.39481-3.97479,0-7.20854,3.2337-7.20854,7.20854v11.55214c2.04162,0,3.69668-1.65506,3.69668-3.69668v-7.85546c0-1.93643,1.57542-3.51185,3.51185-3.51185s3.51185,1.57542,3.51185,3.51185v7.85546c0,2.04162,1.65506,3.69668,3.69668,3.69668V7.20854c0-1.93643,1.57542-3.51185,3.51185-3.51185s3.51185,1.57542,3.51185,3.51185v7.85546c0,2.04162,1.65506,3.69668,3.69668,3.69668V7.20854h.00004ZM56.74412,9.51897c0,5.25718-4.26178,9.51896-9.51896,9.51896s-9.51896-4.26178-9.51896-9.51896S41.96799.00001,47.22516.00001s9.51896,4.26178,9.51896,9.51896ZM53.04743,9.51897c0-3.21556-2.60672-5.82228-5.82228-5.82228s-5.82228,2.60672-5.82228,5.82228,2.60672,5.82228,5.82228,5.82228,5.82228-2.60672,5.82228-5.82228ZM36.22752,9.51897c0,5.25718-4.26178,9.51896-9.51896,9.51896s-9.51896-4.26178-9.51896-9.51896S21.45139.00001,26.70856.00001s9.51896,4.26178,9.51896,9.51896ZM32.53083,9.51897c0-3.21556-2.60672-5.82228-5.82228-5.82228s-5.82228,2.60672-5.82228,5.82228,2.60672,5.82228,5.82228,5.82228,5.82228-2.60672,5.82228-5.82228Z"/>
</svg>